<mxfile host="65bd71144e">
    <diagram id="1ycbiQFayEArfO1JpNZU" name="SDMX - VTL">
        <mxGraphModel dx="557" dy="534" grid="1" gridSize="10" guides="1" tooltips="1" connect="1" arrows="1" fold="1" page="1" pageScale="1" pageWidth="1169" pageHeight="1654" math="0" shadow="0">
            <root>
                <mxCell id="0"/>
                <mxCell id="1" parent="0"/>
                <mxCell id="20" value="" style="rounded=1;whiteSpace=wrap;html=1;fillStyle=auto;fillColor=none;strokeColor=#9211FF;dashed=1;" parent="1" vertex="1">
                    <mxGeometry x="590" y="550" width="420" height="60" as="geometry"/>
                </mxCell>
                <mxCell id="19" value="" style="rounded=1;whiteSpace=wrap;html=1;fillStyle=auto;fillColor=none;strokeColor=#9211FF;dashed=1;" parent="1" vertex="1">
                    <mxGeometry x="540" y="392" width="510" height="140" as="geometry"/>
                </mxCell>
                <mxCell id="13" value="" style="rounded=1;whiteSpace=wrap;html=1;fillStyle=auto;fillColor=none;strokeColor=#9211FF;" parent="1" vertex="1">
                    <mxGeometry x="450" y="376" width="680" height="260" as="geometry"/>
                </mxCell>
                <mxCell id="9" style="edgeStyle=none;html=1;strokeColor=#000000;exitX=1;exitY=0.5;exitDx=0;exitDy=0;entryX=0;entryY=0.5;entryDx=0;entryDy=0;" parent="1" source="3" target="4" edge="1">
                    <mxGeometry relative="1" as="geometry">
                        <mxPoint x="590" y="460" as="sourcePoint"/>
                        <mxPoint x="630" y="470" as="targetPoint"/>
                    </mxGeometry>
                </mxCell>
                <mxCell id="3" value="Dataflows" style="rounded=1;whiteSpace=wrap;html=1;fillColor=#f5f5f5;fontColor=#333333;strokeColor=#666666;" parent="1" vertex="1">
                    <mxGeometry x="554" y="442" width="120" height="40" as="geometry"/>
                </mxCell>
                <mxCell id="10" style="edgeStyle=none;html=1;entryX=0.5;entryY=1;entryDx=0;entryDy=0;strokeColor=#000000;exitX=0.5;exitY=0;exitDx=0;exitDy=0;" parent="1" source="7" target="3" edge="1">
                    <mxGeometry relative="1" as="geometry">
                        <mxPoint x="530" y="570" as="sourcePoint"/>
                    </mxGeometry>
                </mxCell>
                <mxCell id="4" value="DataStructures" style="rounded=1;whiteSpace=wrap;html=1;fillColor=#f5f5f5;fontColor=#333333;strokeColor=#666666;" parent="1" vertex="1">
                    <mxGeometry x="729" y="442" width="120" height="40" as="geometry"/>
                </mxCell>
                <mxCell id="12" style="edgeStyle=none;html=1;exitX=1;exitY=0.5;exitDx=0;exitDy=0;strokeColor=#000000;entryX=0;entryY=0.5;entryDx=0;entryDy=0;" parent="1" source="4" target="5" edge="1">
                    <mxGeometry relative="1" as="geometry">
                        <mxPoint x="772.0845642089844" y="544.7525482177734" as="targetPoint"/>
                    </mxGeometry>
                </mxCell>
                <mxCell id="5" value="VtlMappingSchemes" style="rounded=1;whiteSpace=wrap;html=1;dashed=1;fillColor=#f5f5f5;fontColor=#333333;strokeColor=#666666;" parent="1" vertex="1">
                    <mxGeometry x="907" y="482" width="120" height="40" as="geometry"/>
                </mxCell>
                <mxCell id="11" style="edgeStyle=none;html=1;exitX=1;exitY=0.5;exitDx=0;exitDy=0;strokeColor=#000000;entryX=0;entryY=0.5;entryDx=0;entryDy=0;" parent="1" source="7" target="6" edge="1">
                    <mxGeometry relative="1" as="geometry">
                        <mxPoint x="1020" y="590" as="targetPoint"/>
                    </mxGeometry>
                </mxCell>
                <mxCell id="6" value="RulesetSchemes" style="rounded=1;whiteSpace=wrap;html=1;fillColor=#f5f5f5;fontColor=#333333;strokeColor=#666666;" parent="1" vertex="1">
                    <mxGeometry x="871" y="560" width="120" height="40" as="geometry"/>
                </mxCell>
                <mxCell id="7" value="TransformationSchemes" style="rounded=1;whiteSpace=wrap;html=1;fillColor=#f5f5f5;fontColor=#333333;strokeColor=#666666;" parent="1" vertex="1">
                    <mxGeometry x="610" y="560" width="142" height="40" as="geometry"/>
                </mxCell>
                <mxCell id="14" value="SDMX Message" style="text;strokeColor=none;align=center;fillColor=none;html=1;verticalAlign=middle;whiteSpace=wrap;rounded=0;fillStyle=auto;fontColor=#9211FF;" parent="1" vertex="1">
                    <mxGeometry x="495" y="352" width="90" height="30" as="geometry"/>
                </mxCell>
                <mxCell id="17" value="CodeLists" style="rounded=1;whiteSpace=wrap;html=1;fillColor=#f5f5f5;fontColor=#333333;strokeColor=#666666;" parent="1" vertex="1">
                    <mxGeometry x="907" y="402" width="120" height="40" as="geometry"/>
                </mxCell>
                <mxCell id="18" style="edgeStyle=none;html=1;exitX=1;exitY=0.5;exitDx=0;exitDy=0;strokeColor=#000000;entryX=0;entryY=0.5;entryDx=0;entryDy=0;" parent="1" source="4" target="17" edge="1">
                    <mxGeometry relative="1" as="geometry">
                        <mxPoint x="917" y="511.9999999999999" as="targetPoint"/>
                        <mxPoint x="859" y="472" as="sourcePoint"/>
                    </mxGeometry>
                </mxCell>
                <mxCell id="22" value="1" style="text;strokeColor=none;align=center;fillColor=none;html=1;verticalAlign=middle;whiteSpace=wrap;rounded=0;fillStyle=auto;fontColor=#9211FF;" parent="1" vertex="1">
                    <mxGeometry x="500" y="447" width="30" height="30" as="geometry"/>
                </mxCell>
                <mxCell id="23" value="2" style="text;strokeColor=none;align=center;fillColor=none;html=1;verticalAlign=middle;whiteSpace=wrap;rounded=0;fillStyle=auto;fontColor=#9211FF;" parent="1" vertex="1">
                    <mxGeometry x="549" y="565" width="30" height="30" as="geometry"/>
                </mxCell>
            </root>
        </mxGraphModel>
    </diagram>
</mxfile>